Coordinates
version=1
nRows=4
nColumns=65
inDegrees=yes

Units are S.I. units (second, meters, Newtons, ...)
If the header above contains a line with 'inDegrees', this indicates whether rotational values are in degrees (yes) or radians (no).

endheader
time	pelvis_tilt	pelvis_list	pelvis_rot	pelvis_tx	pelvis_ty	pelvis_tz	hip_flex_r	hip_add_r	hip_rot_r	pf_flex_r	pf_rot_r	pf_tilt_r	pf_tx_r	pf_ty_r	pf_tz_r	knee_flex_r	knee_add_r	knee_rot_r	knee_tx_r	knee_ty_r	knee_tz_r	meniscus_lateral_flex_r	meniscus_lateral_add_r	meniscus_lateral_rot_r	meniscus_lateral_tx_r	meniscus_lateral_ty_r	meniscus_lateral_tz_r	meniscus_medial_flex_r	meniscus_medial_add_r	meniscus_medial_rot_r	meniscus_medial_tx_r	meniscus_medial_ty_r	meniscus_medial_tz_r	ankle_flex_r	subt_angle_r	mtp_angle_r	hip_flex_l	hip_add_l	hip_rot_l	pf_l_r3	pf_l_tx	pf_l_ty	knee_flex_l	ankle_flex_l	subt_angle_l	mtp_angle_l	lumbar_ext	lumbar_latbend	lumbar_rot	neck_ext	neck_latbend	neck_rot	arm_add_r	arm_flex_r	arm_rot_r	elbow_flex_r	pro_sup_r	wrist_flex_r	arm_add_l	arm_flex_l	arm_rot_l	elbow_flex_l	pro_sup_l	wrist_flex_l
      1.77000000	     -8.16600140	     -5.37127120	     -7.98501611	      0.69138008	      0.87407389	     -0.18128380	    -11.94715875	     10.07818186	     -0.01544706	      6.12471082	      0.49120430	     -4.80316997	      0.05269779	      0.01159864	      0.00497031	     -4.79291134	     -0.27254497	     -0.84032275	      0.00110171	     -0.00012849	     -0.00003388	      5.34093299	     -2.29429052	      3.80317308	      0.00053108	     -0.00096453	     -0.00236811	      6.49734876	      0.67418959	      0.92078869	      0.00652573	     -0.00061942	      0.00038075	      5.92708907	     -2.02147505	      0.00000000	     29.74278920	      9.39268494	     -5.59461556	      0.06513700	      0.04435000	     -0.41871200	     -0.10489239	      0.02220272	      0.06050469	      0.00000000	     -9.24124927	      3.91361915	      7.82570874	      0.00000000	      0.00000000	      0.00000000	    -23.66750230	     29.67061096	     33.22129628	     21.48964125	     63.02961799	      0.00000000	    -14.78517897	    -13.90886939	     30.96392629	     10.42260299	     59.83415113	      0.00000000
      1.77500000	     -7.71556473	     -5.29399324	     -8.36980954	      0.69758492	      0.87330164	     -0.18112156	    -12.51608395	      9.68651223	      0.36746779	      6.61607170	      0.44074275	     -4.73418344	      0.05276328	      0.01095523	      0.00493504	     -3.91497492	     -0.25044527	     -0.65878807	      0.00124819	     -0.00006005	     -0.00009456	      4.98393542	     -2.28639623	      3.66991597	      0.00030219	     -0.00099938	     -0.00243036	      6.40248529	      0.57526630	      0.93903261	      0.00642856	     -0.00056842	      0.00037484	      6.55939504	     -1.99001059	      0.00000000	     29.60580599	      9.40170407	     -6.28463965	      0.06513700	      0.04435000	     -0.41871200	     -0.08781110	      0.01741807	      0.05906785	      0.00000000	     -9.11842402	      4.05698712	      8.11105884	      0.00000000	      0.00000000	      0.00000000	    -23.84654035	     29.66295661	     33.25234126	     21.61591564	     63.04779249	      0.00000000	    -14.70008522	    -14.74274361	     30.91985257	     10.11050891	     59.82569508	      0.00000000
      1.78000000	     -7.87100817	     -5.34165274	     -8.43864327	      0.70479060	      0.87204528	     -0.18123196	    -12.72315060	      9.67220749	      0.36253276	      6.65900126	      0.43633841	     -4.72816994	      0.05276900	      0.01089903	      0.00493198	     -3.83836724	     -0.24869030	     -0.64299861	      0.00125632	     -0.00005045	     -0.00010153	      4.95275281	     -2.28570852	      3.65828278	      0.00028221	     -0.00100241	     -0.00243580	      6.39421707	      0.56662914	      0.94062329	      0.00642007	     -0.00056397	      0.00037432	      6.57536519	     -1.99120360	      0.00000000	     29.68916502	      9.34974127	     -6.30156100	      0.06513700	      0.04435000	     -0.41871200	     -0.08812992	      0.01733102	      0.05899962	      0.00000000	     -9.14662146	      4.04908404	      8.11559900	      0.00000000	      0.00000000	      0.00000000	    -23.84902141	     29.67098983	     33.25308347	     21.62070342	     63.04840130	      0.00000000	    -14.69803630	    -14.74922320	     30.91837609	     10.10469944	     59.82551273	      0.00000000
      1.78500000	     -7.94315274	     -5.34385420	     -8.50598341	      0.71155927	      0.87049190	     -0.18103840	    -13.04998124	      9.60843067	      0.37688164	      6.75156077	      0.42682611	     -4.71515392	      0.05278134	      0.01077781	      0.00492530	     -3.67282379	     -0.24437616	     -0.60870258	      0.00128860	     -0.00004138	     -0.00011089	      4.88549206	     -2.28421843	      3.63316659	      0.00023907	     -0.00100899	     -0.00244753	      6.37631729	      0.54798608	      0.94406488	      0.00640177	     -0.00055436	      0.00037321	      6.62898775	     -1.99224740	      0.00000000	     29.89785809	      9.32112114	     -6.35796310	      0.06513700	      0.04435000	     -0.41871200	     -0.08805083	      0.01698895	      0.05874152	      0.00000000	     -9.17440786	      4.03156519	      8.14237181	      0.00000000	      0.00000000	      0.00000000	    -23.85519318	     29.67857093	     33.25676182	     21.63359079	     63.05008100	      0.00000000	    -14.68659120	    -14.79978015	     30.91430452	     10.08232138	     59.82486629	      0.00000000
